<svg id="Layer_1" data-name="Layer 1" xmlns="http://www.w3.org/2000/svg" viewBox="0 0 1243.37 406"><defs><style>.cls-1{fill:none;stroke:#000;stroke-miterlimit:10;}</style></defs><path d="M149.7,218.65q-6,0-9-3.92t-3.07-11.54q0-7.89,3.07-12t9-4.06a9,9,0,0,1,5.54,1.6,6.38,6.38,0,0,1,2.51,4.46h2.34l-1.77,8.65q0-4.69-1.85-7.13a6.39,6.39,0,0,0-5.42-2.43,6.3,6.3,0,0,0-5.55,2.74q-1.89,2.76-1.89,8.13,0,5.1,1.89,7.7a7.22,7.22,0,0,0,11,.17q1.84-2.43,1.85-7.12l2.06,8.64h-2.63a6,6,0,0,1-2.42,4.46A9.13,9.13,0,0,1,149.7,218.65Zm9.25-.29-.63-6V175.14h6.07v42.94Z"/><path d="M171.48,218.08v-5h20.27v5Zm1.15-25.36v-5h10.13l.57,5Zm5.61,25.36V187.74h4.92l1.15,8.7v21.64ZM184.31,205l-1.78-9.5h2.35q.51-8.36,8.35-8.35c3.13,0,5.4.89,6.82,2.69s2.11,4.69,2.11,8.7h-6a8.77,8.77,0,0,0-1-4.78,3.57,3.57,0,0,0-3.19-1.46,6.23,6.23,0,0,0-5.77,3.3Q184.31,198.94,184.31,205Z"/><path d="M216.25,218.65c-3.17,0-5.62-.77-7.36-2.29a8.14,8.14,0,0,1-2.6-6.47,8.5,8.5,0,0,1,3.59-7.38q3.59-2.58,10.14-2.58a32.1,32.1,0,0,1,4.86.33,17.58,17.58,0,0,1,3.79,1l-1.26,4.12a20.78,20.78,0,0,0-3.75-.5c-1.22-.05-2.47-.07-3.75-.07q-7.91,0-7.9,4.8a3.71,3.71,0,0,0,1.36,3.09,6,6,0,0,0,3.85,1.09,10.34,10.34,0,0,0,4.74-1,7,7,0,0,0,2.84-2.49,5.83,5.83,0,0,0,.95-3.12v-3.32l1.77,7.78h-2.4l1-.91a7.55,7.55,0,0,1-1.21,4.39,7.41,7.41,0,0,1-3.42,2.64A14.18,14.18,0,0,1,216.25,218.65Zm10.7-.29-.4-9-.8-2.52V199a5,5,0,0,0-2.13-4.45,12.27,12.27,0,0,0-6.34-1.53l-7.27-.2.57-5.38,6.12.09q7.53.11,11.18,3.25t3.65,9.14v12.65l5.15.63v4.87Z"/><path d="M241.09,218.08V187.74h5.38l.69,6.41v23.93Zm11.39,0V194.32q0-2.58-2.4-2.58-2.93,0-2.92,4.13l-1.78-4.35h2c.23-2.9,2-4.35,5.21-4.35a4.59,4.59,0,0,1,3.73,1.63,7.56,7.56,0,0,1,1.36,4.95v24.33Zm10.47,0V194.89q0-3.15-2.34-3.15-3,0-3,4.13l-2.06-4.35h2.35a4.75,4.75,0,0,1,1.41-3.07,5,5,0,0,1,3.68-1.28q3.15,0,4.58,1.68t1.43,5.47v23.76Z"/><path d="M284.94,218.65c-3.17,0-5.62-.77-7.36-2.29a8.14,8.14,0,0,1-2.6-6.47,8.5,8.5,0,0,1,3.59-7.38q3.58-2.58,10.14-2.58a31.87,31.87,0,0,1,4.85.33,17.52,17.52,0,0,1,3.8,1l-1.26,4.12a20.78,20.78,0,0,0-3.75-.5c-1.22-.05-2.47-.07-3.75-.07q-7.91,0-7.9,4.8a3.71,3.71,0,0,0,1.36,3.09,6,6,0,0,0,3.85,1.09,10.27,10.27,0,0,0,4.73-1,7,7,0,0,0,2.85-2.49,5.83,5.83,0,0,0,.95-3.12v-3.32l1.77,7.78h-2.4l1-.91a7.48,7.48,0,0,1-1.22,4.39,7.31,7.31,0,0,1-3.42,2.64A14.12,14.12,0,0,1,284.94,218.65Zm10.7-.29-.4-9-.8-2.52V199a5,5,0,0,0-2.14-4.45A12.2,12.2,0,0,0,286,193l-7.27-.2.57-5.38,6.12.09q7.53.11,11.18,3.25t3.65,9.14v12.65l5.15.63v4.87Z"/><path d="M308.58,192.72v-5h27.47v5Zm7.61,11.05V178.58h6.07v25.19Zm13.05,14.88q-6.9,0-10-2.86t-3.08-9.16v-5.15h6.07v4.86c0,2.41.58,4.15,1.76,5.24s3.1,1.63,5.79,1.63a29.68,29.68,0,0,0,3-.16c1.06-.1,2.28-.24,3.66-.41l.69,5.32c-1.34.23-2.64.4-3.91.52S330.67,218.65,329.24,218.65Z"/><path d="M345.5,218.08v-5h12.13v5Zm1.71-25.36v-5h15.92v5Zm12.68-9.79a4.23,4.23,0,1,1,3-1.25A4.09,4.09,0,0,1,359.89,182.93Zm-2.83,35.15V189.46h6.07v28.62Zm5.49,0v-5h9.91v5Z"/><path d="M395.35,218.65q-7.75,0-12-4.08t-4.22-11.72q0-7.44,4-11.56t11.4-4.12a16.24,16.24,0,0,1,7.6,1.64,9.63,9.63,0,0,1,4.51,4.65L402,197a9.16,9.16,0,0,0-3.29-3.23,9.49,9.49,0,0,0-11.05,1.44q-2.37,2.59-2.37,7.37,0,5.19,2.79,7.92t8,2.73c1.41,0,2.82-.07,4.23-.2s2.79-.32,4.13-.54l.68,5.32a34.33,34.33,0,0,1-4.85.69C398.56,218.59,396.94,218.65,395.35,218.65Z"/><path d="M464,218.65q-7.76,0-12-4.08t-4.22-11.72q0-7.44,4-11.56t11.41-4.12a16.24,16.24,0,0,1,7.6,1.64,9.63,9.63,0,0,1,4.51,4.65L470.68,197a9.16,9.16,0,0,0-3.29-3.23,9.49,9.49,0,0,0-11.05,1.44q-2.37,2.59-2.37,7.37,0,5.19,2.79,7.92c1.86,1.82,4.51,2.73,8,2.73,1.41,0,2.82-.07,4.23-.2s2.79-.32,4.13-.54l.68,5.32a34.33,34.33,0,0,1-4.85.69C467.25,218.59,465.62,218.65,464,218.65Z"/><path d="M495.47,218.65q-6.3,0-9.79-4.12t-3.49-11.62q0-7.53,3.49-11.64t9.79-4.1q6.31,0,9.8,4.1t3.48,11.64q0,7.5-3.48,11.62T495.47,218.65Zm0-5.44a5.87,5.87,0,0,0,5.16-2.69q1.81-2.69,1.82-7.61c0-3.3-.61-5.85-1.82-7.63a6.32,6.32,0,0,0-10.33,0c-1.21,1.78-1.82,4.33-1.82,7.63s.61,5.82,1.82,7.61A5.87,5.87,0,0,0,495.47,213.21Z"/><path d="M527.49,218.65q-6,0-9-3.92t-3.07-11.54q0-7.89,3.07-12t9-4.06a9,9,0,0,1,5.54,1.6,6.34,6.34,0,0,1,2.5,4.46h2.35l-1.77,8.65q0-4.69-1.85-7.13a6.39,6.39,0,0,0-5.42-2.43,6.28,6.28,0,0,0-5.55,2.74q-1.89,2.76-1.89,8.13,0,5.1,1.89,7.7a7.22,7.22,0,0,0,11,.17q1.85-2.43,1.85-7.12l2.06,8.64h-2.64a6,6,0,0,1-2.41,4.46A9.15,9.15,0,0,1,527.49,218.65Zm9.25-.29-.63-6V175.14h6.06v42.94Z"/><path d="M567.07,218.65q-7.76,0-12-4.08t-4.22-11.72q0-7.44,3.57-11.56t10.11-4.12q6.15,0,9.51,3.72t3.37,10.81c0,1.4-.06,2.69-.18,3.9H556V201h16a9.14,9.14,0,0,0-2-6.28,6.81,6.81,0,0,0-5.38-2.19,7.29,7.29,0,0,0-6,2.63c-1.42,1.76-2.14,4.24-2.14,7.44,0,3.51,1,6.19,2.94,8s4.74,2.74,8.34,2.74a32.61,32.61,0,0,0,3.72-.21c1.22-.14,2.46-.34,3.72-.59l.75,5.33a39.69,39.69,0,0,1-4.93.65C569.54,218.6,568.22,218.65,567.07,218.65Z"/><path d="M583.62,218.08v-5h20.26v5Zm1.14-25.36v-5h10.13l.58,5Zm5.61,25.36V187.74h4.92l1.15,8.7v21.64ZM596.44,205l-1.78-9.5H597q.51-8.36,8.36-8.35c3.13,0,5.4.89,6.81,2.69s2.12,4.69,2.12,8.7h-6a8.76,8.76,0,0,0-1-4.78,3.56,3.56,0,0,0-3.19-1.46,6.23,6.23,0,0,0-5.77,3.3Q596.44,198.94,596.44,205Z"/><line class="cls-1" x1="953.29" y1="240.44" x2="931.36" y2="262.37"/><line class="cls-1" x1="1121.8" y1="292.45" x2="1096.74" y2="318.43"/><line class="cls-1" x1="967.6" y1="239.03" x2="930.79" y2="277.19"/><line class="cls-1" x1="1121.8" y1="278.57" x2="1082.7" y2="318.46"/><line class="cls-1" x1="980.52" y1="239.03" x2="930.03" y2="290.46"/><line class="cls-1" x1="1123.03" y1="265.26" x2="1072.54" y2="316.69"/><line class="cls-1" x1="993.44" y1="239.03" x2="930.03" y2="302.9"/><line class="cls-1" x1="1121.8" y1="254.56" x2="1058.39" y2="318.43"/><line class="cls-1" x1="1006.36" y1="239.03" x2="930.03" y2="315.28"/><line class="cls-1" x1="1018.69" y1="240.44" x2="942.35" y2="316.69"/><line class="cls-1" x1="1031.61" y1="242.18" x2="955.27" y2="318.43"/><line class="cls-1" x1="1042.33" y1="242.18" x2="966" y2="318.43"/><line class="cls-1" x1="1054.66" y1="242.18" x2="978.32" y2="318.43"/><line class="cls-1" x1="1069.78" y1="242.18" x2="993.44" y2="318.43"/><line class="cls-1" x1="1082.7" y1="242.18" x2="1006.36" y2="318.43"/><line class="cls-1" x1="1092.82" y1="243.95" x2="1016.49" y2="320.2"/><line class="cls-1" x1="1105.09" y1="243.95" x2="1028.76" y2="320.2"/><line class="cls-1" x1="1118.67" y1="243.95" x2="1042.33" y2="320.2"/><line class="cls-1" x1="941.75" y1="239.03" x2="930.03" y2="251.41"/><line class="cls-1" x1="1120.99" y1="305.44" x2="1109.27" y2="317.81"/><line class="cls-1" x1="1123.03" y1="313.79" x2="1118.67" y2="318.5"/><line class="cls-1" x1="930.03" y1="159.64" x2="892.24" y2="199.44"/><line class="cls-1" x1="913.37" y1="159.64" x2="891.26" y2="182.93"/><line class="cls-1" x1="900.69" y1="159.64" x2="891.26" y2="169.57"/><line class="cls-1" x1="929.81" y1="190.71" x2="920.38" y2="200.64"/><line class="cls-1" x1="929.81" y1="177.35" x2="907.7" y2="200.64"/><line class="cls-1" x1="929.43" y1="200.87" x2="891.64" y2="240.67"/><line class="cls-1" x1="912.77" y1="200.87" x2="890.66" y2="224.16"/><line class="cls-1" x1="900.09" y1="200.87" x2="890.66" y2="210.8"/><line class="cls-1" x1="929.21" y1="231.94" x2="919.78" y2="241.87"/><line class="cls-1" x1="929.21" y1="218.58" x2="907.1" y2="241.87"/><line class="cls-1" x1="930.82" y1="241.76" x2="893.03" y2="281.56"/><line class="cls-1" x1="914.16" y1="241.76" x2="892.05" y2="265.05"/><line class="cls-1" x1="901.48" y1="241.76" x2="892.05" y2="251.69"/><line class="cls-1" x1="930.6" y1="272.83" x2="921.17" y2="282.76"/><line class="cls-1" x1="930.6" y1="259.47" x2="908.49" y2="282.76"/><line class="cls-1" x1="1162.69" y1="242.04" x2="1124.9" y2="281.84"/><line class="cls-1" x1="1146.04" y1="242.04" x2="1123.92" y2="265.33"/><line class="cls-1" x1="1133.35" y1="242.04" x2="1123.92" y2="251.97"/><line class="cls-1" x1="1162.47" y1="273.11" x2="1153.04" y2="283.04"/><line class="cls-1" x1="1162.47" y1="259.75" x2="1140.36" y2="283.04"/><line class="cls-1" x1="1163.08" y1="282.93" x2="1125.29" y2="322.73"/><line class="cls-1" x1="1146.43" y1="282.93" x2="1124.31" y2="306.22"/><line class="cls-1" x1="1133.74" y1="282.93" x2="1124.31" y2="292.86"/><line class="cls-1" x1="1162.86" y1="314" x2="1153.43" y2="323.93"/><line class="cls-1" x1="1162.86" y1="300.64" x2="1140.75" y2="323.93"/><line class="cls-1" x1="1239.87" y1="241.81" x2="1202.08" y2="281.62"/><line class="cls-1" x1="1223.21" y1="241.81" x2="1201.1" y2="265.1"/><line class="cls-1" x1="1210.53" y1="241.81" x2="1201.1" y2="251.75"/><line class="cls-1" x1="1239.65" y1="272.88" x2="1230.22" y2="282.82"/><line class="cls-1" x1="1239.65" y1="259.53" x2="1217.54" y2="282.82"/><line class="cls-1" x1="1241.26" y1="282.7" x2="1203.47" y2="322.51"/><line class="cls-1" x1="1224.6" y1="282.7" x2="1202.49" y2="306"/><line class="cls-1" x1="1211.92" y1="282.7" x2="1202.49" y2="292.64"/><line class="cls-1" x1="1241.04" y1="313.77" x2="1231.61" y2="323.71"/><line class="cls-1" x1="1241.04" y1="300.42" x2="1218.93" y2="323.71"/><line class="cls-1" x1="930.22" y1="282.99" x2="892.43" y2="322.79"/><line class="cls-1" x1="913.56" y1="282.99" x2="891.45" y2="306.28"/><line class="cls-1" x1="900.88" y1="282.99" x2="891.45" y2="292.92"/><line class="cls-1" x1="930" y1="314.06" x2="920.57" y2="323.99"/><line class="cls-1" x1="930" y1="300.7" x2="907.89" y2="323.99"/><line class="cls-1" x1="930.03" y1="324.33" x2="892.24" y2="364.13"/><line class="cls-1" x1="913.37" y1="324.33" x2="891.26" y2="347.62"/><line class="cls-1" x1="900.69" y1="324.33" x2="891.26" y2="334.26"/><line class="cls-1" x1="929.81" y1="355.4" x2="920.38" y2="365.33"/><line class="cls-1" x1="929.81" y1="342.04" x2="907.7" y2="365.33"/><line class="cls-1" x1="968.47" y1="364.66" x2="930.68" y2="404.46"/><line class="cls-1" x1="951.82" y1="364.66" x2="929.7" y2="387.95"/><line class="cls-1" x1="939.13" y1="364.66" x2="929.7" y2="374.59"/><line class="cls-1" x1="968.25" y1="395.73" x2="958.82" y2="405.66"/><line class="cls-1" x1="968.25" y1="382.37" x2="946.14" y2="405.66"/><line class="cls-1" x1="968.28" y1="159.86" x2="930.49" y2="199.67"/><line class="cls-1" x1="951.62" y1="159.86" x2="929.51" y2="183.15"/><line class="cls-1" x1="938.94" y1="159.86" x2="929.51" y2="169.8"/><line class="cls-1" x1="968.06" y1="190.93" x2="958.63" y2="200.87"/><line class="cls-1" x1="968.06" y1="177.58" x2="945.95" y2="200.87"/><line class="cls-1" x1="1007.34" y1="82.78" x2="969.56" y2="122.58"/><line class="cls-1" x1="990.69" y1="82.78" x2="968.58" y2="106.07"/><line class="cls-1" x1="978.01" y1="82.78" x2="968.58" y2="92.71"/><line class="cls-1" x1="1007.12" y1="113.85" x2="997.69" y2="123.78"/><line class="cls-1" x1="1007.12" y1="100.49" x2="985.01" y2="123.78"/><line class="cls-1" x1="968.58" y1="40.71" x2="930.79" y2="80.51"/><line class="cls-1" x1="951.92" y1="40.71" x2="929.81" y2="64"/><line class="cls-1" x1="939.24" y1="40.71" x2="929.81" y2="50.64"/><line class="cls-1" x1="968.36" y1="71.78" x2="958.93" y2="81.71"/><line class="cls-1" x1="968.36" y1="58.42" x2="946.25" y2="81.71"/><line class="cls-1" x1="1007.61" y1="-0.3" x2="969.82" y2="39.51"/><line class="cls-1" x1="990.95" y1="-0.3" x2="968.84" y2="22.99"/><line class="cls-1" x1="978.27" y1="-0.3" x2="968.84" y2="9.64"/><line class="cls-1" x1="1007.39" y1="30.77" x2="997.96" y2="40.71"/><line class="cls-1" x1="1007.39" y1="17.42" x2="985.28" y2="40.71"/><line class="cls-1" x1="1007.6" y1="159.75" x2="969.81" y2="199.55"/><line class="cls-1" x1="990.95" y1="159.75" x2="968.84" y2="183.04"/><line class="cls-1" x1="978.26" y1="159.75" x2="968.84" y2="169.68"/><line class="cls-1" x1="1007.38" y1="190.82" x2="997.95" y2="200.75"/><line class="cls-1" x1="1007.38" y1="177.46" x2="985.27" y2="200.75"/><line class="cls-1" x1="1045.85" y1="159.97" x2="1008.06" y2="199.78"/><line class="cls-1" x1="1029.2" y1="159.97" x2="1007.08" y2="183.27"/><line class="cls-1" x1="1016.51" y1="159.97" x2="1007.08" y2="169.91"/><line class="cls-1" x1="1045.63" y1="191.05" x2="1036.2" y2="200.98"/><line class="cls-1" x1="1045.63" y1="177.69" x2="1023.52" y2="200.98"/><line class="cls-1" x1="1085.29" y1="159.75" x2="1047.5" y2="199.55"/><line class="cls-1" x1="1068.64" y1="159.75" x2="1046.53" y2="183.04"/><line class="cls-1" x1="1055.96" y1="159.75" x2="1046.53" y2="169.68"/><line class="cls-1" x1="1085.07" y1="190.82" x2="1075.64" y2="200.75"/><line class="cls-1" x1="1085.07" y1="177.46" x2="1062.96" y2="200.75"/><line class="cls-1" x1="1123.54" y1="159.97" x2="1085.75" y2="199.78"/><line class="cls-1" x1="1106.89" y1="159.97" x2="1084.77" y2="183.27"/><line class="cls-1" x1="1094.2" y1="159.97" x2="1084.77" y2="169.91"/><line class="cls-1" x1="1123.32" y1="191.05" x2="1113.89" y2="200.98"/><line class="cls-1" x1="1123.32" y1="177.69" x2="1101.21" y2="200.98"/><line class="cls-1" x1="1162.98" y1="200.75" x2="1125.19" y2="240.56"/><line class="cls-1" x1="1146.33" y1="200.75" x2="1124.22" y2="224.04"/><line class="cls-1" x1="1133.65" y1="200.75" x2="1124.22" y2="210.69"/><line class="cls-1" x1="1162.76" y1="231.82" x2="1153.33" y2="241.76"/><line class="cls-1" x1="1162.76" y1="218.47" x2="1140.65" y2="241.76"/><line class="cls-1" x1="1163.21" y1="159.86" x2="1125.43" y2="199.67"/><line class="cls-1" x1="1146.56" y1="159.86" x2="1124.45" y2="183.15"/><line class="cls-1" x1="1133.88" y1="159.86" x2="1124.45" y2="169.8"/><line class="cls-1" x1="1162.99" y1="190.93" x2="1153.56" y2="200.87"/><line class="cls-1" x1="1162.99" y1="177.58" x2="1140.88" y2="200.87"/><line class="cls-1" x1="1201.23" y1="200.98" x2="1163.44" y2="240.78"/><line class="cls-1" x1="1184.58" y1="200.98" x2="1162.46" y2="224.27"/><line class="cls-1" x1="1171.89" y1="200.98" x2="1162.46" y2="210.91"/><line class="cls-1" x1="1201.01" y1="232.05" x2="1191.58" y2="241.98"/><line class="cls-1" x1="1201.01" y1="218.69" x2="1178.9" y2="241.98"/><line class="cls-1" x1="1162.72" y1="323.54" x2="1124.94" y2="363.34"/><line class="cls-1" x1="1146.07" y1="323.54" x2="1123.96" y2="346.83"/><line class="cls-1" x1="1133.39" y1="323.54" x2="1123.96" y2="333.47"/><line class="cls-1" x1="1162.5" y1="354.61" x2="1153.07" y2="364.54"/><line class="cls-1" x1="1162.5" y1="341.25" x2="1140.39" y2="364.54"/><line class="cls-1" x1="1200.97" y1="323.76" x2="1163.19" y2="363.57"/><line class="cls-1" x1="1184.32" y1="323.76" x2="1162.21" y2="347.06"/><line class="cls-1" x1="1171.64" y1="323.76" x2="1162.21" y2="333.7"/><line class="cls-1" x1="1200.75" y1="354.83" x2="1191.32" y2="364.77"/><line class="cls-1" x1="1200.75" y1="341.48" x2="1178.64" y2="364.77"/><line class="cls-1" x1="1085.03" y1="364.54" x2="1047.25" y2="404.35"/><line class="cls-1" x1="1068.38" y1="364.54" x2="1046.27" y2="387.83"/><line class="cls-1" x1="1055.7" y1="364.54" x2="1046.27" y2="374.48"/><line class="cls-1" x1="1084.81" y1="395.61" x2="1075.38" y2="405.55"/><line class="cls-1" x1="1084.81" y1="382.26" x2="1062.7" y2="405.55"/><line class="cls-1" x1="1124.28" y1="364.77" x2="1086.49" y2="404.57"/><line class="cls-1" x1="1107.63" y1="364.77" x2="1085.52" y2="388.06"/><line class="cls-1" x1="1094.95" y1="364.77" x2="1085.52" y2="374.7"/><line class="cls-1" x1="1124.06" y1="395.84" x2="1114.63" y2="405.77"/><line class="cls-1" x1="1124.06" y1="382.48" x2="1101.95" y2="405.77"/><line class="cls-1" x1="1008.32" y1="364.54" x2="970.53" y2="404.35"/><line class="cls-1" x1="991.67" y1="364.54" x2="969.56" y2="387.83"/><line class="cls-1" x1="978.99" y1="364.54" x2="969.56" y2="374.48"/><line class="cls-1" x1="1008.1" y1="395.61" x2="998.67" y2="405.55"/><line class="cls-1" x1="1008.1" y1="382.26" x2="985.99" y2="405.55"/><line class="cls-1" x1="1046.57" y1="364.77" x2="1008.78" y2="404.57"/><line class="cls-1" x1="1029.92" y1="364.77" x2="1007.8" y2="388.06"/><line class="cls-1" x1="1017.23" y1="364.77" x2="1007.8" y2="374.7"/><line class="cls-1" x1="1046.35" y1="395.84" x2="1036.92" y2="405.77"/><line class="cls-1" x1="1046.35" y1="382.48" x2="1024.24" y2="405.77"/><rect class="cls-1" x="891.26" y="159.64" width="38.77" height="41"/><rect class="cls-1" x="929.81" y="159.64" width="38.77" height="41"/><rect class="cls-1" x="968.58" y="159.64" width="38.77" height="41"/><rect class="cls-1" x="1007.61" y="159.86" width="38.77" height="41"/><rect class="cls-1" x="1047.54" y="159.64" width="38.77" height="41"/><rect class="cls-1" x="1085.71" y="159.64" width="38.77" height="41"/><rect class="cls-1" x="891.26" y="200.64" width="38.77" height="41"/><rect class="cls-1" x="891.26" y="241.64" width="38.77" height="41"/><rect class="cls-1" x="891.26" y="282.65" width="38.77" height="41"/><rect class="cls-1" x="891.26" y="323.65" width="38.77" height="41"/><rect class="cls-1" x="1123.96" y="159.86" width="38.77" height="41"/><rect class="cls-1" x="1085.71" y="82.78" width="38.77" height="41"/><rect class="cls-1" x="968.58" y="82.78" width="38.77" height="41"/><rect class="cls-1" x="1047.54" y="40.71" width="38.77" height="41"/><rect class="cls-1" x="1085.71" y="-0.3" width="38.77" height="41"/><rect class="cls-1" x="968.84" y="-0.3" width="38.77" height="41"/><rect class="cls-1" x="929.81" y="40.71" width="38.77" height="41"/><rect class="cls-1" x="1123.96" y="200.87" width="38.77" height="41"/><rect class="cls-1" x="1123.96" y="241.87" width="38.77" height="41"/><rect class="cls-1" x="1123.96" y="282.87" width="38.77" height="41"/><rect class="cls-1" x="1123.96" y="323.88" width="38.77" height="41"/><rect class="cls-1" x="1162.72" y="323.65" width="38.77" height="41"/><rect class="cls-1" x="1201.49" y="282.4" width="38.77" height="41"/><rect class="cls-1" x="1201.49" y="241.64" width="38.77" height="41"/><rect class="cls-1" x="1162.72" y="200.64" width="38.77" height="41"/><rect class="cls-1" x="929.81" y="364.66" width="38.77" height="41"/><rect class="cls-1" x="968.58" y="364.66" width="38.77" height="41"/><rect class="cls-1" x="1007.61" y="364.66" width="38.77" height="41"/><rect class="cls-1" x="1046.27" y="364.66" width="38.77" height="41"/><rect class="cls-1" x="1085.11" y="364.66" width="38.77" height="41"/><line class="cls-1" x1="1125.13" y1="82.95" x2="1087.34" y2="122.75"/><line class="cls-1" x1="1108.47" y1="82.95" x2="1086.36" y2="106.24"/><line class="cls-1" x1="1095.79" y1="82.95" x2="1086.36" y2="92.88"/><line class="cls-1" x1="1124.91" y1="114.02" x2="1115.48" y2="123.95"/><line class="cls-1" x1="1124.91" y1="100.66" x2="1102.8" y2="123.95"/><line class="cls-1" x1="1086.36" y1="40.88" x2="1048.57" y2="80.68"/><line class="cls-1" x1="1069.71" y1="40.88" x2="1047.59" y2="64.17"/><line class="cls-1" x1="1057.02" y1="40.88" x2="1047.59" y2="50.81"/><line class="cls-1" x1="1086.14" y1="71.95" x2="1076.71" y2="81.88"/><line class="cls-1" x1="1086.14" y1="58.59" x2="1064.03" y2="81.88"/><line class="cls-1" x1="1125.4" y1="-0.13" x2="1087.61" y2="39.68"/><line class="cls-1" x1="1108.74" y1="-0.13" x2="1086.63" y2="23.16"/><line class="cls-1" x1="1096.06" y1="-0.13" x2="1086.63" y2="9.81"/><line class="cls-1" x1="1125.17" y1="30.94" x2="1115.75" y2="40.88"/><line class="cls-1" x1="1125.17" y1="17.59" x2="1103.06" y2="40.88"/></svg>