<svg id="Layer_1" data-name="Layer 1" xmlns="http://www.w3.org/2000/svg" viewBox="0 0 1104.02 406.96"><defs><style>.cls-1{fill:#fff;}.cls-2{fill:none;stroke:#fff;stroke-miterlimit:10;}</style></defs><path class="cls-1" d="M149.7,218.65q-6,0-9-3.92t-3.07-11.54q0-7.89,3.07-12t9-4.06a9,9,0,0,1,5.54,1.6,6.38,6.38,0,0,1,2.51,4.46h2.34l-1.77,8.65q0-4.69-1.85-7.13a6.39,6.39,0,0,0-5.42-2.43,6.3,6.3,0,0,0-5.55,2.74q-1.89,2.76-1.89,8.13,0,5.1,1.89,7.7a7.22,7.22,0,0,0,11,.17q1.84-2.43,1.85-7.12l2.06,8.64h-2.63a6,6,0,0,1-2.42,4.46A9.13,9.13,0,0,1,149.7,218.65Zm9.25-.29-.63-6V175.14h6.07v42.94Z" transform="translate(-137.6 0.8)"/><path class="cls-1" d="M171.48,218.08v-5h20.27v5Zm1.15-25.36v-5h10.13l.57,5Zm5.61,25.36V187.74h4.92l1.15,8.7v21.64ZM184.31,205l-1.78-9.5h2.35q.51-8.36,8.35-8.35c3.13,0,5.4.89,6.82,2.69s2.11,4.69,2.11,8.7h-6a8.77,8.77,0,0,0-1-4.78,3.57,3.57,0,0,0-3.19-1.46,6.23,6.23,0,0,0-5.77,3.3Q184.31,198.94,184.31,205Z" transform="translate(-137.6 0.8)"/><path class="cls-1" d="M216.25,218.65c-3.17,0-5.62-.77-7.36-2.29a8.14,8.14,0,0,1-2.6-6.47,8.5,8.5,0,0,1,3.59-7.38q3.59-2.58,10.14-2.58a32.1,32.1,0,0,1,4.86.33,17.58,17.58,0,0,1,3.79,1l-1.26,4.12a20.78,20.78,0,0,0-3.75-.5c-1.22-.05-2.47-.07-3.75-.07q-7.91,0-7.9,4.8a3.71,3.71,0,0,0,1.36,3.09,6,6,0,0,0,3.85,1.09,10.34,10.34,0,0,0,4.74-1,7,7,0,0,0,2.84-2.49,5.83,5.83,0,0,0,.95-3.12v-3.32l1.77,7.78h-2.4l1-.91a7.55,7.55,0,0,1-1.21,4.39,7.41,7.41,0,0,1-3.42,2.64A14.18,14.18,0,0,1,216.25,218.65Zm10.7-.29-.4-9-.8-2.52V199a5,5,0,0,0-2.13-4.45,12.27,12.27,0,0,0-6.34-1.53l-7.27-.2.57-5.38,6.12.09q7.53.11,11.18,3.25t3.65,9.14v12.65l5.15.63v4.87Z" transform="translate(-137.6 0.8)"/><path class="cls-1" d="M241.09,218.08V187.74h5.38l.69,6.41v23.93Zm11.39,0V194.32q0-2.58-2.4-2.58-2.93,0-2.92,4.13l-1.78-4.35h2c.23-2.9,2-4.35,5.21-4.35a4.59,4.59,0,0,1,3.73,1.63,7.56,7.56,0,0,1,1.36,4.95v24.33Zm10.47,0V194.89q0-3.15-2.34-3.15-3,0-3,4.13l-2.06-4.35h2.35a4.75,4.75,0,0,1,1.41-3.07,5,5,0,0,1,3.68-1.28q3.15,0,4.58,1.68t1.43,5.47v23.76Z" transform="translate(-137.6 0.8)"/><path class="cls-1" d="M284.94,218.65c-3.17,0-5.62-.77-7.36-2.29a8.14,8.14,0,0,1-2.6-6.47,8.5,8.5,0,0,1,3.59-7.38q3.58-2.58,10.14-2.58a31.87,31.87,0,0,1,4.85.33,17.52,17.52,0,0,1,3.8,1l-1.26,4.12a20.78,20.78,0,0,0-3.75-.5c-1.22-.05-2.47-.07-3.75-.07q-7.91,0-7.9,4.8a3.71,3.71,0,0,0,1.36,3.09,6,6,0,0,0,3.85,1.09,10.27,10.27,0,0,0,4.73-1,7,7,0,0,0,2.85-2.49,5.83,5.83,0,0,0,.95-3.12v-3.32l1.77,7.78h-2.4l1-.91a7.48,7.48,0,0,1-1.22,4.39,7.31,7.31,0,0,1-3.42,2.64A14.12,14.12,0,0,1,284.94,218.65Zm10.7-.29-.4-9-.8-2.52V199a5,5,0,0,0-2.14-4.45A12.2,12.2,0,0,0,286,193l-7.27-.2.57-5.38,6.12.09q7.53.11,11.18,3.25t3.65,9.14v12.65l5.15.63v4.87Z" transform="translate(-137.6 0.8)"/><path class="cls-1" d="M308.58,192.72v-5h27.47v5Zm7.61,11.05V178.58h6.07v25.19Zm13.05,14.88q-6.9,0-10-2.86t-3.08-9.16v-5.15h6.07v4.86c0,2.41.58,4.15,1.76,5.24s3.1,1.63,5.79,1.63a29.68,29.68,0,0,0,3-.16c1.06-.1,2.28-.24,3.66-.41l.69,5.32c-1.34.23-2.64.4-3.91.52S330.67,218.65,329.24,218.65Z" transform="translate(-137.6 0.8)"/><path class="cls-1" d="M345.5,218.08v-5h12.13v5Zm1.71-25.36v-5h15.92v5Zm12.68-9.79a4.23,4.23,0,1,1,3-1.25A4.09,4.09,0,0,1,359.89,182.93Zm-2.83,35.15V189.46h6.07v28.62Zm5.49,0v-5h9.91v5Z" transform="translate(-137.6 0.8)"/><path class="cls-1" d="M395.35,218.65q-7.75,0-12-4.08t-4.22-11.72q0-7.44,4-11.56t11.4-4.12a16.24,16.24,0,0,1,7.6,1.64,9.63,9.63,0,0,1,4.51,4.65L402,197a9.16,9.16,0,0,0-3.29-3.23,9.49,9.49,0,0,0-11.05,1.44q-2.37,2.59-2.37,7.37,0,5.19,2.79,7.92t8,2.73c1.41,0,2.82-.07,4.23-.2s2.79-.32,4.13-.54l.68,5.32a34.33,34.33,0,0,1-4.85.69C398.56,218.59,396.94,218.65,395.35,218.65Z" transform="translate(-137.6 0.8)"/><path class="cls-1" d="M464,218.65q-7.76,0-12-4.08t-4.22-11.72q0-7.44,4-11.56t11.41-4.12a16.24,16.24,0,0,1,7.6,1.64,9.63,9.63,0,0,1,4.51,4.65L470.68,197a9.16,9.16,0,0,0-3.29-3.23,9.49,9.49,0,0,0-11.05,1.44q-2.37,2.59-2.37,7.37,0,5.19,2.79,7.92c1.86,1.82,4.51,2.73,8,2.73,1.41,0,2.82-.07,4.23-.2s2.79-.32,4.13-.54l.68,5.32a34.33,34.33,0,0,1-4.85.69C467.25,218.59,465.62,218.65,464,218.65Z" transform="translate(-137.6 0.8)"/><path class="cls-1" d="M495.47,218.65q-6.3,0-9.79-4.12t-3.49-11.62q0-7.53,3.49-11.64t9.79-4.1q6.31,0,9.8,4.1t3.48,11.64q0,7.5-3.48,11.62T495.47,218.65Zm0-5.44a5.87,5.87,0,0,0,5.16-2.69q1.81-2.69,1.82-7.61c0-3.3-.61-5.85-1.82-7.63a6.32,6.32,0,0,0-10.33,0c-1.21,1.78-1.82,4.33-1.82,7.63s.61,5.82,1.82,7.61A5.87,5.87,0,0,0,495.47,213.21Z" transform="translate(-137.6 0.8)"/><path class="cls-1" d="M527.49,218.65q-6,0-9-3.92t-3.07-11.54q0-7.89,3.07-12t9-4.06a9,9,0,0,1,5.54,1.6,6.34,6.34,0,0,1,2.5,4.46h2.35l-1.77,8.65q0-4.69-1.85-7.13a6.39,6.39,0,0,0-5.42-2.43,6.28,6.28,0,0,0-5.55,2.74q-1.89,2.76-1.89,8.13,0,5.1,1.89,7.7a7.22,7.22,0,0,0,11,.17q1.85-2.43,1.85-7.12l2.06,8.64h-2.64a6,6,0,0,1-2.41,4.46A9.15,9.15,0,0,1,527.49,218.65Zm9.25-.29-.63-6V175.14h6.06v42.94Z" transform="translate(-137.6 0.8)"/><path class="cls-1" d="M567.07,218.65q-7.76,0-12-4.08t-4.22-11.72q0-7.44,3.57-11.56t10.11-4.12q6.15,0,9.51,3.72t3.37,10.81c0,1.4-.06,2.69-.18,3.9H556V201h16a9.14,9.14,0,0,0-2-6.28,6.81,6.81,0,0,0-5.38-2.19,7.29,7.29,0,0,0-6,2.63c-1.42,1.76-2.14,4.24-2.14,7.44,0,3.51,1,6.19,2.94,8s4.74,2.74,8.34,2.74a32.61,32.61,0,0,0,3.72-.21c1.22-.14,2.46-.34,3.72-.59l.75,5.33a39.69,39.69,0,0,1-4.93.65C569.54,218.6,568.22,218.65,567.07,218.65Z" transform="translate(-137.6 0.8)"/><path class="cls-1" d="M583.62,218.08v-5h20.26v5Zm1.14-25.36v-5h10.13l.58,5Zm5.61,25.36V187.74h4.92l1.15,8.7v21.64ZM596.44,205l-1.78-9.5H597q.51-8.36,8.36-8.35c3.13,0,5.4.89,6.81,2.69s2.12,4.69,2.12,8.7h-6a8.76,8.76,0,0,0-1-4.78,3.56,3.56,0,0,0-3.19-1.46,6.23,6.23,0,0,0-5.77,3.3Q596.44,198.94,596.44,205Z" transform="translate(-137.6 0.8)"/><line class="cls-2" x1="815.69" y1="241.24" x2="793.77" y2="263.17"/><line class="cls-2" x1="984.2" y1="293.24" x2="959.14" y2="319.22"/><line class="cls-2" x1="830" y1="239.83" x2="793.19" y2="277.98"/><line class="cls-2" x1="984.2" y1="279.36" x2="945.1" y2="319.25"/><line class="cls-2" x1="842.92" y1="239.83" x2="792.43" y2="291.26"/><line class="cls-2" x1="985.43" y1="266.06" x2="934.95" y2="317.49"/><line class="cls-2" x1="855.84" y1="239.83" x2="792.43" y2="303.7"/><line class="cls-2" x1="984.2" y1="255.35" x2="920.79" y2="319.22"/><line class="cls-2" x1="868.77" y1="239.83" x2="792.43" y2="316.07"/><line class="cls-2" x1="881.09" y1="241.24" x2="804.76" y2="317.49"/><line class="cls-2" x1="894.01" y1="242.98" x2="817.68" y2="319.22"/><line class="cls-2" x1="904.73" y1="242.98" x2="828.4" y2="319.22"/><line class="cls-2" x1="917.06" y1="242.98" x2="840.72" y2="319.22"/><line class="cls-2" x1="932.18" y1="242.98" x2="855.84" y2="319.22"/><line class="cls-2" x1="945.1" y1="242.98" x2="868.77" y2="319.22"/><line class="cls-2" x1="955.23" y1="244.75" x2="878.89" y2="320.99"/><line class="cls-2" x1="967.49" y1="244.75" x2="891.16" y2="320.99"/><line class="cls-2" x1="981.07" y1="244.75" x2="904.73" y2="320.99"/><line class="cls-2" x1="804.16" y1="239.83" x2="792.43" y2="252.2"/><line class="cls-2" x1="983.39" y1="306.23" x2="971.67" y2="318.61"/><line class="cls-2" x1="985.43" y1="314.58" x2="981.07" y2="319.3"/><line class="cls-2" x1="792.43" y1="160.43" x2="754.65" y2="200.24"/><line class="cls-2" x1="775.78" y1="160.43" x2="753.67" y2="183.72"/><line class="cls-2" x1="763.1" y1="160.43" x2="753.67" y2="170.37"/><line class="cls-2" x1="792.21" y1="191.5" x2="782.78" y2="201.44"/><line class="cls-2" x1="792.21" y1="178.15" x2="770.1" y2="201.44"/><line class="cls-2" x1="791.83" y1="201.66" x2="754.05" y2="241.47"/><line class="cls-2" x1="775.18" y1="201.66" x2="753.07" y2="224.95"/><line class="cls-2" x1="762.5" y1="201.66" x2="753.07" y2="211.6"/><line class="cls-2" x1="791.61" y1="232.73" x2="782.18" y2="242.67"/><line class="cls-2" x1="791.61" y1="219.38" x2="769.5" y2="242.67"/><line class="cls-2" x1="793.22" y1="242.55" x2="755.43" y2="282.36"/><line class="cls-2" x1="776.57" y1="242.55" x2="754.46" y2="265.84"/><line class="cls-2" x1="763.89" y1="242.55" x2="754.46" y2="252.49"/><line class="cls-2" x1="793" y1="273.62" x2="783.57" y2="283.56"/><line class="cls-2" x1="793" y1="260.27" x2="770.89" y2="283.56"/><line class="cls-2" x1="1025.09" y1="242.84" x2="987.31" y2="282.64"/><line class="cls-2" x1="1008.44" y1="242.84" x2="986.33" y2="266.13"/><line class="cls-2" x1="995.76" y1="242.84" x2="986.33" y2="252.77"/><line class="cls-2" x1="1024.87" y1="273.91" x2="1015.44" y2="283.84"/><line class="cls-2" x1="1024.87" y1="260.55" x2="1002.76" y2="283.84"/><line class="cls-2" x1="1025.48" y1="283.73" x2="987.7" y2="323.53"/><line class="cls-2" x1="1008.83" y1="283.73" x2="986.72" y2="307.02"/><line class="cls-2" x1="996.15" y1="283.73" x2="986.72" y2="293.66"/><line class="cls-2" x1="1025.26" y1="314.8" x2="1015.83" y2="324.73"/><line class="cls-2" x1="1025.26" y1="301.44" x2="1003.15" y2="324.73"/><line class="cls-2" x1="1102.27" y1="242.61" x2="1064.48" y2="282.41"/><line class="cls-2" x1="1085.61" y1="242.61" x2="1063.5" y2="265.9"/><line class="cls-2" x1="1072.93" y1="242.61" x2="1063.5" y2="252.54"/><line class="cls-2" x1="1102.05" y1="273.68" x2="1092.62" y2="283.61"/><line class="cls-2" x1="1102.05" y1="260.32" x2="1079.94" y2="283.61"/><line class="cls-2" x1="1103.66" y1="283.5" x2="1065.87" y2="323.31"/><line class="cls-2" x1="1087" y1="283.5" x2="1064.89" y2="306.79"/><line class="cls-2" x1="1074.32" y1="283.5" x2="1064.89" y2="293.43"/><line class="cls-2" x1="1103.44" y1="314.57" x2="1094.01" y2="324.5"/><line class="cls-2" x1="1103.44" y1="301.21" x2="1081.33" y2="324.5"/><line class="cls-2" x1="792.62" y1="283.78" x2="754.83" y2="323.59"/><line class="cls-2" x1="775.97" y1="283.78" x2="753.86" y2="307.07"/><line class="cls-2" x1="763.29" y1="283.78" x2="753.86" y2="293.72"/><line class="cls-2" x1="792.4" y1="314.85" x2="782.97" y2="324.79"/><line class="cls-2" x1="792.4" y1="301.5" x2="770.29" y2="324.79"/><line class="cls-2" x1="792.43" y1="325.12" x2="754.65" y2="364.93"/><line class="cls-2" x1="775.78" y1="325.12" x2="753.67" y2="348.41"/><line class="cls-2" x1="763.1" y1="325.12" x2="753.67" y2="335.06"/><line class="cls-2" x1="792.21" y1="356.19" x2="782.78" y2="366.13"/><line class="cls-2" x1="792.21" y1="342.84" x2="770.1" y2="366.13"/><line class="cls-2" x1="830.87" y1="365.45" x2="793.09" y2="405.26"/><line class="cls-2" x1="814.22" y1="365.45" x2="792.11" y2="388.74"/><line class="cls-2" x1="801.54" y1="365.45" x2="792.11" y2="375.39"/><line class="cls-2" x1="830.65" y1="396.52" x2="821.22" y2="406.46"/><line class="cls-2" x1="830.65" y1="383.16" x2="808.54" y2="406.46"/><line class="cls-2" x1="830.68" y1="160.66" x2="792.89" y2="200.46"/><line class="cls-2" x1="814.03" y1="160.66" x2="791.92" y2="183.95"/><line class="cls-2" x1="801.35" y1="160.66" x2="791.92" y2="170.59"/><line class="cls-2" x1="830.46" y1="191.73" x2="821.03" y2="201.66"/><line class="cls-2" x1="830.46" y1="178.37" x2="808.35" y2="201.66"/><line class="cls-2" x1="869.75" y1="83.58" x2="831.96" y2="123.38"/><line class="cls-2" x1="853.09" y1="83.58" x2="830.98" y2="106.87"/><line class="cls-2" x1="840.41" y1="83.58" x2="830.98" y2="93.51"/><line class="cls-2" x1="869.53" y1="114.65" x2="860.1" y2="124.58"/><line class="cls-2" x1="869.53" y1="101.29" x2="847.41" y2="124.58"/><line class="cls-2" x1="830.98" y1="41.5" x2="793.19" y2="81.31"/><line class="cls-2" x1="814.32" y1="41.5" x2="792.21" y2="64.79"/><line class="cls-2" x1="801.64" y1="41.5" x2="792.21" y2="51.44"/><line class="cls-2" x1="830.76" y1="72.57" x2="821.33" y2="82.51"/><line class="cls-2" x1="830.76" y1="59.22" x2="808.65" y2="82.51"/><line class="cls-2" x1="870.01" y1="0.5" x2="832.23" y2="40.3"/><line class="cls-2" x1="853.36" y1="0.5" x2="831.25" y2="23.79"/><line class="cls-2" x1="840.68" y1="0.5" x2="831.25" y2="10.43"/><line class="cls-2" x1="869.79" y1="31.57" x2="860.36" y2="41.5"/><line class="cls-2" x1="869.79" y1="18.21" x2="847.68" y2="41.5"/><line class="cls-2" x1="870" y1="160.55" x2="832.22" y2="200.35"/><line class="cls-2" x1="853.35" y1="160.55" x2="831.24" y2="183.84"/><line class="cls-2" x1="840.67" y1="160.55" x2="831.24" y2="170.48"/><line class="cls-2" x1="869.78" y1="191.62" x2="860.35" y2="201.55"/><line class="cls-2" x1="869.78" y1="178.26" x2="847.67" y2="201.55"/><line class="cls-2" x1="908.25" y1="160.77" x2="870.47" y2="200.58"/><line class="cls-2" x1="891.6" y1="160.77" x2="869.49" y2="184.06"/><line class="cls-2" x1="878.92" y1="160.77" x2="869.49" y2="170.7"/><line class="cls-2" x1="908.03" y1="191.84" x2="898.6" y2="201.78"/><line class="cls-2" x1="908.03" y1="178.48" x2="885.92" y2="201.78"/><line class="cls-2" x1="947.69" y1="160.55" x2="909.91" y2="200.35"/><line class="cls-2" x1="931.04" y1="160.55" x2="908.93" y2="183.84"/><line class="cls-2" x1="918.36" y1="160.55" x2="908.93" y2="170.48"/><line class="cls-2" x1="947.47" y1="191.62" x2="938.04" y2="201.55"/><line class="cls-2" x1="947.47" y1="178.26" x2="925.36" y2="201.55"/><line class="cls-2" x1="985.94" y1="160.77" x2="948.16" y2="200.58"/><line class="cls-2" x1="969.29" y1="160.77" x2="947.18" y2="184.06"/><line class="cls-2" x1="956.61" y1="160.77" x2="947.18" y2="170.7"/><line class="cls-2" x1="985.72" y1="191.84" x2="976.29" y2="201.78"/><line class="cls-2" x1="985.72" y1="178.48" x2="963.61" y2="201.78"/><line class="cls-2" x1="1025.38" y1="201.55" x2="987.6" y2="241.35"/><line class="cls-2" x1="1008.73" y1="201.55" x2="986.62" y2="224.84"/><line class="cls-2" x1="996.05" y1="201.55" x2="986.62" y2="211.48"/><line class="cls-2" x1="1025.16" y1="232.62" x2="1015.73" y2="242.55"/><line class="cls-2" x1="1025.16" y1="219.26" x2="1003.05" y2="242.55"/><line class="cls-2" x1="1025.62" y1="160.66" x2="987.83" y2="200.46"/><line class="cls-2" x1="1008.96" y1="160.66" x2="986.85" y2="183.95"/><line class="cls-2" x1="996.28" y1="160.66" x2="986.85" y2="170.59"/><line class="cls-2" x1="1025.4" y1="191.73" x2="1015.97" y2="201.66"/><line class="cls-2" x1="1025.4" y1="178.37" x2="1003.28" y2="201.66"/><line class="cls-2" x1="1063.63" y1="201.78" x2="1025.85" y2="241.58"/><line class="cls-2" x1="1046.98" y1="201.78" x2="1024.87" y2="225.07"/><line class="cls-2" x1="1034.3" y1="201.78" x2="1024.87" y2="211.71"/><line class="cls-2" x1="1063.41" y1="232.85" x2="1053.98" y2="242.78"/><line class="cls-2" x1="1063.41" y1="219.49" x2="1041.3" y2="242.78"/><line class="cls-2" x1="1025.13" y1="324.34" x2="987.34" y2="364.14"/><line class="cls-2" x1="1008.47" y1="324.34" x2="986.36" y2="347.63"/><line class="cls-2" x1="995.79" y1="324.34" x2="986.36" y2="334.27"/><line class="cls-2" x1="1024.91" y1="355.41" x2="1015.48" y2="365.34"/><line class="cls-2" x1="1024.91" y1="342.05" x2="1002.8" y2="365.34"/><line class="cls-2" x1="1063.38" y1="324.56" x2="1025.59" y2="364.37"/><line class="cls-2" x1="1046.72" y1="324.56" x2="1024.61" y2="347.85"/><line class="cls-2" x1="1034.04" y1="324.56" x2="1024.61" y2="334.49"/><line class="cls-2" x1="1063.16" y1="355.63" x2="1053.73" y2="365.56"/><line class="cls-2" x1="1063.16" y1="342.27" x2="1041.04" y2="365.56"/><line class="cls-2" x1="947.44" y1="365.34" x2="909.65" y2="405.14"/><line class="cls-2" x1="930.78" y1="365.34" x2="908.67" y2="388.63"/><line class="cls-2" x1="918.1" y1="365.34" x2="908.67" y2="375.27"/><line class="cls-2" x1="947.22" y1="396.41" x2="937.79" y2="406.34"/><line class="cls-2" x1="947.22" y1="383.05" x2="925.11" y2="406.34"/><line class="cls-2" x1="986.69" y1="365.56" x2="948.9" y2="405.37"/><line class="cls-2" x1="970.03" y1="365.56" x2="947.92" y2="388.86"/><line class="cls-2" x1="957.35" y1="365.56" x2="947.92" y2="375.5"/><line class="cls-2" x1="986.47" y1="396.64" x2="977.04" y2="406.57"/><line class="cls-2" x1="986.47" y1="383.28" x2="964.35" y2="406.57"/><line class="cls-2" x1="870.72" y1="365.34" x2="832.94" y2="405.14"/><line class="cls-2" x1="854.07" y1="365.34" x2="831.96" y2="388.63"/><line class="cls-2" x1="841.39" y1="365.34" x2="831.96" y2="375.27"/><line class="cls-2" x1="870.5" y1="396.41" x2="861.07" y2="406.34"/><line class="cls-2" x1="870.5" y1="383.05" x2="848.39" y2="406.34"/><line class="cls-2" x1="908.97" y1="365.56" x2="871.19" y2="405.37"/><line class="cls-2" x1="892.32" y1="365.56" x2="870.21" y2="388.86"/><line class="cls-2" x1="879.64" y1="365.56" x2="870.21" y2="375.5"/><line class="cls-2" x1="908.75" y1="396.64" x2="899.32" y2="406.57"/><line class="cls-2" x1="908.75" y1="383.28" x2="886.64" y2="406.57"/><rect class="cls-2" x="753.67" y="160.43" width="38.77" height="41"/><rect class="cls-2" x="792.21" y="160.43" width="38.77" height="41"/><rect class="cls-2" x="830.98" y="160.43" width="38.77" height="41"/><rect class="cls-2" x="870.01" y="160.66" width="38.77" height="41"/><rect class="cls-2" x="909.94" y="160.43" width="38.77" height="41"/><rect class="cls-2" x="948.11" y="160.43" width="38.77" height="41"/><rect class="cls-2" x="753.67" y="201.44" width="38.77" height="41"/><rect class="cls-2" x="753.67" y="242.44" width="38.77" height="41"/><rect class="cls-2" x="753.67" y="283.44" width="38.77" height="41"/><rect class="cls-2" x="753.67" y="324.45" width="38.77" height="41"/><rect class="cls-2" x="986.36" y="160.66" width="38.77" height="41"/><rect class="cls-2" x="948.11" y="83.58" width="38.77" height="41"/><rect class="cls-2" x="830.98" y="83.58" width="38.77" height="41"/><rect class="cls-2" x="909.94" y="41.5" width="38.77" height="41"/><rect class="cls-2" x="948.11" y="0.5" width="38.77" height="41"/><rect class="cls-2" x="831.25" y="0.5" width="38.77" height="41"/><rect class="cls-2" x="792.21" y="41.5" width="38.77" height="41"/><rect class="cls-2" x="986.36" y="201.66" width="38.77" height="41"/><rect class="cls-2" x="986.36" y="242.67" width="38.77" height="41"/><rect class="cls-2" x="986.36" y="283.67" width="38.77" height="41"/><rect class="cls-2" x="986.36" y="324.67" width="38.77" height="41"/><rect class="cls-2" x="1025.13" y="324.45" width="38.77" height="41"/><rect class="cls-2" x="1063.89" y="283.2" width="38.77" height="41"/><rect class="cls-2" x="1063.89" y="242.44" width="38.77" height="41"/><rect class="cls-2" x="1025.13" y="201.44" width="38.77" height="41"/><rect class="cls-2" x="792.21" y="365.45" width="38.77" height="41"/><rect class="cls-2" x="830.98" y="365.45" width="38.77" height="41"/><rect class="cls-2" x="870.01" y="365.45" width="38.77" height="41"/><rect class="cls-2" x="908.67" y="365.45" width="38.77" height="41"/><rect class="cls-2" x="947.51" y="365.45" width="38.77" height="41"/><line class="cls-2" x1="987.53" y1="83.75" x2="949.74" y2="123.55"/><line class="cls-2" x1="970.87" y1="83.75" x2="948.76" y2="107.04"/><line class="cls-2" x1="958.19" y1="83.75" x2="948.76" y2="93.68"/><line class="cls-2" x1="987.31" y1="114.82" x2="977.88" y2="124.75"/><line class="cls-2" x1="987.31" y1="101.46" x2="965.2" y2="124.75"/><line class="cls-2" x1="948.76" y1="41.67" x2="910.98" y2="81.48"/><line class="cls-2" x1="932.11" y1="41.67" x2="910" y2="64.96"/><line class="cls-2" x1="919.43" y1="41.67" x2="910" y2="51.61"/><line class="cls-2" x1="948.54" y1="72.74" x2="939.11" y2="82.68"/><line class="cls-2" x1="948.54" y1="59.39" x2="926.43" y2="82.68"/><line class="cls-2" x1="987.8" y1="0.67" x2="950.01" y2="40.47"/><line class="cls-2" x1="971.14" y1="0.67" x2="949.03" y2="23.96"/><line class="cls-2" x1="958.46" y1="0.67" x2="949.03" y2="10.6"/><line class="cls-2" x1="987.58" y1="31.74" x2="978.15" y2="41.67"/><line class="cls-2" x1="987.58" y1="18.38" x2="965.47" y2="41.67"/></svg>