<svg id="Layer_1" data-name="Layer 1" xmlns="http://www.w3.org/2000/svg" viewBox="0 0 1102.66 397.05"><defs><style>.cls-1{fill:#fff;}</style></defs><path class="cls-1" d="M992.7,379.32v-6.85h45.61v6.85Z" transform="translate(-242.36 -334.84)"/><path class="cls-1" d="M1034.89,414.31V374.57h38.76v39.74Z" transform="translate(-242.36 -334.84)"/><path class="cls-1" d="M1073.65,381.68V334.84h38.77v46.84Z" transform="translate(-242.36 -334.84)"/><path class="cls-1" d="M1109,379.32v-6.85h45.61v6.85Z" transform="translate(-242.36 -334.84)"/><path class="cls-1" d="M1151.19,414.31V374.57H1190v39.74Z" transform="translate(-242.36 -334.84)"/><path class="cls-1" d="M1190,381.68V334.84h38.77v46.84Z" transform="translate(-242.36 -334.84)"/><path class="cls-1" d="M992.7,458.72v-6.85h45.61v6.85Z" transform="translate(-242.36 -334.84)"/><path class="cls-1" d="M1031.46,458.72v-6.85h45.62v6.85Z" transform="translate(-242.36 -334.84)"/><path class="cls-1" d="M1073.65,461.07V414.23h38.77v46.84Z" transform="translate(-242.36 -334.84)"/><path class="cls-1" d="M1109,458.72v-6.85h45.61v6.85Z" transform="translate(-242.36 -334.84)"/><path class="cls-1" d="M1147.76,458.72v-6.85h45.62v6.85Z" transform="translate(-242.36 -334.84)"/><path class="cls-1" d="M1190,461.07V414.23h38.77v46.84Z" transform="translate(-242.36 -334.84)"/><path class="cls-1" d="M996.12,573.1V493.62h38.77V573.1Z" transform="translate(-242.36 -334.84)"/><path class="cls-1" d="M1034.89,540.47V493.62h38.76v46.85Z" transform="translate(-242.36 -334.84)"/><path class="cls-1" d="M1073.65,540.47V493.62h38.77v46.85Z" transform="translate(-242.36 -334.84)"/><path class="cls-1" d="M1112.42,540.47V493.62h38.77v46.85Z" transform="translate(-242.36 -334.84)"/><path class="cls-1" d="M1151.19,540.47V493.62H1190v46.85Z" transform="translate(-242.36 -334.84)"/><path class="cls-1" d="M1190,540.47V493.62h38.77v46.85Z" transform="translate(-242.36 -334.84)"/><path class="cls-1" d="M1228.72,573.1V493.62h38.77V573.1Z" transform="translate(-242.36 -334.84)"/><path class="cls-1" d="M1267.49,573.1V533.36h38.76V573.1Z" transform="translate(-242.36 -334.84)"/><path class="cls-1" d="M996.12,652.49V573h38.77v79.47Z" transform="translate(-242.36 -334.84)"/><path class="cls-1" d="M1034.89,611.79V610.5L1072.36,573h1.29Zm0-12.93v-1.29L1059.44,573h1.29Zm0-12.92v-1.29L1046.52,573h1.29Zm0,38.77v-1.29l38.76-38.77v1.29Zm0,12.92v-1.29l38.76-38.77v1.29Zm0,12.92v-1.29l38.76-38.76v1.29Zm9.69,1.94,29.07-29.07v1.29l-27.78,27.78Zm12.92,0,16.15-16.15v1.29l-14.86,14.86Zm12.92,0,3.23-3.23v1.29l-1.94,1.94Z" transform="translate(-242.36 -334.84)"/><path class="cls-1" d="M1073.65,611.79V610.5L1111.13,573h1.29Zm0-12.93v-1.29L1098.21,573h1.29Zm0-12.92v-1.29L1085.28,573h1.3Zm0,38.77v-1.29l38.77-38.77v1.29Zm0,12.92v-1.29l38.77-38.77v1.29Zm0,12.92v-1.29l38.77-38.76v1.29Zm9.7,1.94,29.07-29.07v1.29l-27.78,27.78Zm12.92,0,16.15-16.15v1.29l-14.86,14.86Zm12.92,0,3.23-3.23v1.29l-1.94,1.94Z" transform="translate(-242.36 -334.84)"/><path class="cls-1" d="M1112.42,611.79V610.5L1149.89,573h1.3Zm0-12.93v-1.29L1137,573h1.3Zm0-12.92v-1.29L1124.05,573h1.29Zm0,38.77v-1.29l38.77-38.77v1.29Zm0,12.92v-1.29l38.77-38.77v1.29Zm0,12.92v-1.29l38.77-38.76v1.29Zm9.69,1.94,29.08-29.07v1.29l-27.79,27.78Zm12.92,0,16.16-16.15v1.29l-14.86,14.86Zm12.93,0,3.23-3.23v1.29l-1.94,1.94Z" transform="translate(-242.36 -334.84)"/><path class="cls-1" d="M1151.19,611.79V610.5L1188.66,573H1190Zm0-12.93v-1.29L1175.74,573H1177Zm0-12.92v-1.29L1162.82,573h1.29Zm0,38.77v-1.29L1190,584.65v1.29Zm0,12.92v-1.29L1190,597.57v1.29Zm0,12.92v-1.29L1190,610.5v1.29Zm9.69,1.94L1190,623.42v1.29l-27.78,27.78Zm12.92,0L1190,636.34v1.29l-14.86,14.86Zm12.92,0,3.23-3.23v1.29l-1.93,1.94Z" transform="translate(-242.36 -334.84)"/><path class="cls-1" d="M1190,611.79V610.5L1227.43,573h1.29Zm0-12.93v-1.29L1214.51,573h1.29Zm0-12.92v-1.29L1201.58,573h1.3Zm0,38.77v-1.29l38.77-38.77v1.29Zm0,12.92v-1.29l38.77-38.77v1.29Zm0,12.92v-1.29l38.77-38.76v1.29Zm9.7,1.94,29.07-29.07v1.29l-27.78,27.78Zm12.92,0,16.15-16.15v1.29l-14.86,14.86Zm12.92,0,3.23-3.23v1.29l-1.94,1.94Z" transform="translate(-242.36 -334.84)"/><path class="cls-1" d="M1228.72,652.49V573h38.77v79.47Z" transform="translate(-242.36 -334.84)"/><path class="cls-1" d="M1264.06,617.5v-6.84h45.62v6.84Z" transform="translate(-242.36 -334.84)"/><path class="cls-1" d="M1306.25,652.49V573H1345v79.47Z" transform="translate(-242.36 -334.84)"/><path class="cls-1" d="M996.12,699.26V652.42h38.77v46.84Z" transform="translate(-242.36 -334.84)"/><path class="cls-1" d="M1034.89,731.89V692.15h38.76v39.74Z" transform="translate(-242.36 -334.84)"/><path class="cls-1" d="M1073.65,731.89V692.15h38.77v39.74Z" transform="translate(-242.36 -334.84)"/><path class="cls-1" d="M1112.42,731.89V692.15h38.77v39.74Z" transform="translate(-242.36 -334.84)"/><path class="cls-1" d="M1151.19,731.89V692.15H1190v39.74Z" transform="translate(-242.36 -334.84)"/><path class="cls-1" d="M1190,731.89V692.15h38.77v39.74Z" transform="translate(-242.36 -334.84)"/><path class="cls-1" d="M1228.72,699.26V652.42h38.77v46.84Z" transform="translate(-242.36 -334.84)"/><path class="cls-1" d="M1267.49,699.26V652.42h38.76v46.84Z" transform="translate(-242.36 -334.84)"/><path class="cls-1" d="M254.47,552.64q-6,0-9-3.93t-3.08-11.53q0-7.9,3.08-12t9-4.07a9,9,0,0,1,5.54,1.61,6.35,6.35,0,0,1,2.5,4.46h2.35l-1.78,8.64c0-3.12-.61-5.5-1.84-7.12a6.39,6.39,0,0,0-5.43-2.43,6.3,6.3,0,0,0-5.55,2.74q-1.89,2.75-1.89,8.13c0,3.4.63,6,1.89,7.7a7.25,7.25,0,0,0,11,.17q1.85-2.43,1.84-7.13l2.06,8.65h-2.63a6.07,6.07,0,0,1-2.42,4.46A9.12,9.12,0,0,1,254.47,552.64Zm9.24-.29-.63-6V509.13h6.07v42.93Z" transform="translate(-242.36 -334.84)"/><path class="cls-1" d="M276.25,552.06v-5h20.26v5Zm1.14-25.35v-5h10.13l.58,5ZM283,552.06V521.73h4.92l1.15,8.7v21.63Zm6.07-13-1.78-9.5h2.35q.51-8.35,8.36-8.36,4.69,0,6.81,2.69t2.12,8.7h-6a8.8,8.8,0,0,0-1-4.78,3.57,3.57,0,0,0-3.19-1.45,6.23,6.23,0,0,0-5.77,3.3C289.7,531.81,289.07,535,289.07,539Z" transform="translate(-242.36 -334.84)"/><path class="cls-1" d="M321,552.64c-3.17,0-5.62-.77-7.36-2.29a8.19,8.19,0,0,1-2.6-6.47,8.55,8.55,0,0,1,3.59-7.39q3.6-2.57,10.15-2.57a32,32,0,0,1,4.85.33,18.2,18.2,0,0,1,3.79,1l-1.26,4.13a20.82,20.82,0,0,0-3.75-.51c-1.22,0-2.47-.07-3.75-.07q-7.89,0-7.9,4.81a3.73,3.73,0,0,0,1.36,3.09,6,6,0,0,0,3.85,1.09,10.34,10.34,0,0,0,4.74-1,7,7,0,0,0,2.85-2.49,5.82,5.82,0,0,0,.94-3.12v-3.32l1.78,7.78h-2.41l1-.91a7.55,7.55,0,0,1-1.21,4.39,7.29,7.29,0,0,1-3.42,2.63A14.17,14.17,0,0,1,321,552.64Zm10.7-.29-.4-9-.8-2.52V533a5,5,0,0,0-2.13-4.45A12.24,12.24,0,0,0,322,527l-7.27-.2.57-5.38,6.13.09q7.53.11,11.17,3.24t3.65,9.15v12.65l5.15.63v4.86Z" transform="translate(-242.36 -334.84)"/><path class="cls-1" d="M345.85,552.06V521.73h5.38l.69,6.41v23.92Zm11.39,0V528.31q0-2.58-2.4-2.58c-1.95,0-2.92,1.38-2.92,4.12l-1.77-4.35h1.94q.35-4.35,5.21-4.35a4.64,4.64,0,0,1,3.74,1.63,7.67,7.67,0,0,1,1.35,5v24.32Zm10.48,0V528.88c0-2.1-.78-3.15-2.35-3.15-2,0-3,1.38-3,4.12l-2.06-4.35h2.35a4.81,4.81,0,0,1,1.42-3.06,4.94,4.94,0,0,1,3.68-1.29,5.69,5.69,0,0,1,4.57,1.69q1.44,1.7,1.44,5.47v23.75Z" transform="translate(-242.36 -334.84)"/><path class="cls-1" d="M389.7,552.64c-3.17,0-5.62-.77-7.36-2.29a8.19,8.19,0,0,1-2.6-6.47,8.55,8.55,0,0,1,3.59-7.39q3.6-2.57,10.15-2.57a32,32,0,0,1,4.85.33,18.2,18.2,0,0,1,3.79,1l-1.26,4.13a20.82,20.82,0,0,0-3.75-.51c-1.22,0-2.47-.07-3.75-.07q-7.89,0-7.9,4.81a3.73,3.73,0,0,0,1.36,3.09,6,6,0,0,0,3.85,1.09,10.34,10.34,0,0,0,4.74-1,7,7,0,0,0,2.85-2.49,5.82,5.82,0,0,0,.94-3.12v-3.32l1.78,7.78h-2.41l1-.91a7.55,7.55,0,0,1-1.21,4.39,7.29,7.29,0,0,1-3.42,2.63A14.17,14.17,0,0,1,389.7,552.64Zm10.7-.29-.4-9-.8-2.52V533a5,5,0,0,0-2.13-4.45,12.24,12.24,0,0,0-6.34-1.53l-7.27-.2.57-5.38,6.13.09q7.51.11,11.17,3.24t3.65,9.15v12.65l5.15.63v4.86Z" transform="translate(-242.36 -334.84)"/><path class="cls-1" d="M413.34,526.71v-5h27.47v5Zm7.61,11V512.57H427v25.18ZM434,552.64q-6.9,0-10-2.87c-2-1.9-3.08-5-3.08-9.15v-5.16H427v4.87q0,3.6,1.76,5.24c1.17,1.08,3.1,1.63,5.8,1.63a29.64,29.64,0,0,0,3-.16c1.07-.1,2.29-.24,3.66-.41L442,552c-1.34.23-2.64.4-3.91.51S435.43,552.64,434,552.64Z" transform="translate(-242.36 -334.84)"/><path class="cls-1" d="M450.26,552.06v-5h12.13v5ZM452,526.71v-5h15.91v5Zm12.67-9.79a4.23,4.23,0,1,1,3-1.25A4.09,4.09,0,0,1,464.65,516.92Zm-2.83,35.14V523.44h6.07v28.62Zm5.5,0v-5h9.9v5Z" transform="translate(-242.36 -334.84)"/><path class="cls-1" d="M500.12,552.64q-7.77,0-12-4.08t-4.22-11.72q0-7.44,4-11.57t11.4-4.12a16.24,16.24,0,0,1,7.6,1.65,9.63,9.63,0,0,1,4.51,4.65L506.76,531a9.19,9.19,0,0,0-3.3-3.23,9.48,9.48,0,0,0-11,1.44q-2.39,2.6-2.38,7.37,0,5.18,2.79,7.91t8,2.74c1.41,0,2.83-.07,4.24-.2s2.78-.32,4.12-.55l.69,5.33a33.13,33.13,0,0,1-4.85.68C503.33,552.58,501.7,552.64,500.12,552.64Z" transform="translate(-242.36 -334.84)"/><path class="cls-1" d="M568.8,552.64q-7.75,0-12-4.08t-4.22-11.72q0-7.44,4-11.57t11.4-4.12a16.24,16.24,0,0,1,7.6,1.65,9.63,9.63,0,0,1,4.51,4.65L575.44,531a9.08,9.08,0,0,0-3.29-3.23,9.48,9.48,0,0,0-11,1.44q-2.39,2.6-2.38,7.37,0,5.18,2.79,7.91t8,2.74c1.41,0,2.83-.07,4.24-.2s2.78-.32,4.12-.55l.69,5.33a33.26,33.26,0,0,1-4.86.68C572,552.58,570.39,552.64,568.8,552.64Z" transform="translate(-242.36 -334.84)"/><path class="cls-1" d="M600.23,552.64q-6.3,0-9.79-4.13T587,536.89q0-7.51,3.49-11.63t9.79-4.11q6.33,0,9.8,4.11t3.48,11.63q0,7.5-3.48,11.62T600.23,552.64Zm0-5.44a5.9,5.9,0,0,0,5.17-2.69c1.21-1.8,1.81-4.33,1.81-7.62s-.6-5.84-1.81-7.62a6.33,6.33,0,0,0-10.34,0q-1.81,2.67-1.81,7.62c0,3.29.6,5.82,1.81,7.62A5.9,5.9,0,0,0,600.23,547.2Z" transform="translate(-242.36 -334.84)"/><path class="cls-1" d="M632.26,552.64q-6,0-9-3.93t-3.08-11.53q0-7.9,3.08-12t9-4.07a8.94,8.94,0,0,1,5.53,1.61,6.36,6.36,0,0,1,2.51,4.46h2.35l-1.78,8.64c0-3.12-.61-5.5-1.85-7.12a6.38,6.38,0,0,0-5.42-2.43,6.3,6.3,0,0,0-5.55,2.74q-1.89,2.75-1.89,8.13c0,3.4.63,6,1.89,7.7a7.24,7.24,0,0,0,11,.17c1.24-1.62,1.85-4,1.85-7.13l2.06,8.65H640.3a6.07,6.07,0,0,1-2.42,4.46A9.12,9.12,0,0,1,632.26,552.64Zm9.24-.29-.63-6V509.13h6.07v42.93Z" transform="translate(-242.36 -334.84)"/><path class="cls-1" d="M671.84,552.64q-7.76,0-12-4.08t-4.22-11.72q0-7.44,3.58-11.57t10.1-4.12q6.15,0,9.52,3.72t3.36,10.82c0,1.4-.06,2.69-.17,3.89h-21.3V535h16a9.18,9.18,0,0,0-1.94-6.28,6.83,6.83,0,0,0-5.38-2.19,7.26,7.26,0,0,0-6,2.63q-2.13,2.64-2.13,7.44,0,5.26,2.93,8t8.34,2.74a32.91,32.91,0,0,0,3.73-.21c1.22-.14,2.46-.34,3.72-.59l.74,5.32a37.66,37.66,0,0,1-4.92.66C674.3,552.59,673,552.64,671.84,552.64Z" transform="translate(-242.36 -334.84)"/><path class="cls-1" d="M688.38,552.06v-5h20.26v5Zm1.15-25.35v-5h10.13l.57,5Zm5.6,25.35V521.73h4.93l1.14,8.7v21.63Zm6.07-13-1.77-9.5h2.34q.53-8.35,8.36-8.36,4.7,0,6.81,2.69c1.42,1.8,2.12,4.7,2.12,8.7h-6a8.8,8.8,0,0,0-1-4.78,3.56,3.56,0,0,0-3.19-1.45,6.22,6.22,0,0,0-5.76,3.3C701.84,531.81,701.2,535,701.2,539Z" transform="translate(-242.36 -334.84)"/></svg>