<svg id="Layer_1" data-name="Layer 1" xmlns="http://www.w3.org/2000/svg" viewBox="0 0 1243.37 406"><defs><style>.cls-1{fill:#fff;}</style></defs><path class="cls-1" d="M820.69,50.27V43.42H866.3v6.85Z"/><path class="cls-1" d="M862.88,85.26V45.52h38.76V85.26Z"/><path class="cls-1" d="M901.64,52.63V5.79h38.77V52.63Z"/><path class="cls-1" d="M937,50.27V43.42H982.6v6.85Z"/><path class="cls-1" d="M979.18,85.26V45.52H1018V85.26Z"/><path class="cls-1" d="M1018,52.63V5.79h38.77V52.63Z"/><path class="cls-1" d="M820.69,129.67v-6.85H866.3v6.85Z"/><path class="cls-1" d="M859.45,129.67v-6.85h45.62v6.85Z"/><path class="cls-1" d="M901.64,132V85.18h38.77V132Z"/><path class="cls-1" d="M937,129.67v-6.85H982.6v6.85Z"/><path class="cls-1" d="M975.75,129.67v-6.85h45.62v6.85Z"/><path class="cls-1" d="M1018,132V85.18h38.77V132Z"/><path class="cls-1" d="M824.11,244.05V164.57h38.77v79.48Z"/><path class="cls-1" d="M862.88,211.42V164.57h38.76v46.85Z"/><path class="cls-1" d="M901.64,211.42V164.57h38.77v46.85Z"/><path class="cls-1" d="M940.41,211.42V164.57h38.77v46.85Z"/><path class="cls-1" d="M979.18,211.42V164.57H1018v46.85Z"/><path class="cls-1" d="M1018,211.42V164.57h38.77v46.85Z"/><path class="cls-1" d="M1056.71,244.05V164.57h38.77v79.48Z"/><path class="cls-1" d="M1095.48,244.05V204.31h38.76v39.74Z"/><path class="cls-1" d="M824.11,323.44V244h38.77v79.47Z"/><path class="cls-1" d="M862.88,282.74v-1.29L900.35,244h1.29Zm0-12.93v-1.29L887.43,244h1.29Zm0-12.92V255.6L874.51,244h1.29Zm0,38.77v-1.29l38.76-38.77v1.29Zm0,12.92v-1.29l38.76-38.77v1.29Zm0,12.92v-1.29l38.76-38.76v1.29Zm9.69,1.94,29.07-29.07v1.29l-27.78,27.78Zm12.92,0,16.15-16.15v1.29l-14.86,14.86Zm12.92,0,3.23-3.23v1.29l-1.94,1.94Z"/><path class="cls-1" d="M901.64,282.74v-1.29L939.12,244h1.29Zm0-12.93v-1.29L926.2,244h1.29Zm0-12.92V255.6L913.27,244h1.3Zm0,38.77v-1.29l38.77-38.77v1.29Zm0,12.92v-1.29l38.77-38.77v1.29Zm0,12.92v-1.29l38.77-38.76v1.29Zm9.7,1.94,29.07-29.07v1.29l-27.78,27.78Zm12.92,0,16.15-16.15v1.29l-14.86,14.86Zm12.92,0,3.23-3.23v1.29l-1.94,1.94Z"/><path class="cls-1" d="M940.41,282.74v-1.29L977.88,244h1.3Zm0-12.93v-1.29L965,244h1.3Zm0-12.92V255.6L952,244h1.29Zm0,38.77v-1.29l38.77-38.77v1.29Zm0,12.92v-1.29l38.77-38.77v1.29Zm0,12.92v-1.29l38.77-38.76v1.29Zm9.69,1.94,29.08-29.07v1.29l-27.79,27.78Zm12.92,0,16.16-16.15v1.29l-14.86,14.86Zm12.93,0,3.23-3.23v1.29l-1.94,1.94Z"/><path class="cls-1" d="M979.18,282.74v-1.29l37.47-37.5H1018Zm0-12.93v-1.29L1003.73,244H1005Zm0-12.92V255.6L990.81,244h1.29Zm0,38.77v-1.29L1018,255.6v1.29Zm0,12.92v-1.29L1018,268.52v1.29Zm0,12.92v-1.29L1018,281.45v1.29Zm9.69,1.94L1018,294.37v1.29l-27.78,27.78Zm12.92,0,16.2-16.15v1.29l-14.86,14.86Zm12.92,0,3.23-3.23v1.29l-1.93,1.94Z"/><path class="cls-1" d="M1018,282.74v-1.29l37.43-37.5h1.29Zm0-12.93v-1.29L1042.5,244h1.29Zm0-12.92V255.6L1029.57,244h1.3Zm0,38.77v-1.29l38.77-38.77v1.29Zm0,12.92v-1.29l38.77-38.77v1.29Zm0,12.92v-1.29l38.77-38.76v1.29Zm9.7,1.94,29.07-29.07v1.29L1029,323.44Zm12.92,0,16.15-16.15v1.29l-14.86,14.86Zm12.92,0,3.23-3.23v1.29l-1.94,1.94Z"/><path class="cls-1" d="M1056.71,323.44V244h38.77v79.47Z"/><path class="cls-1" d="M1092.05,288.45v-6.84h45.62v6.84Z"/><path class="cls-1" d="M1134.24,323.44V244H1173v79.47Z"/><path class="cls-1" d="M824.11,370.21V323.37h38.77v46.84Z"/><path class="cls-1" d="M862.88,402.84V363.1h38.76v39.74Z"/><path class="cls-1" d="M901.64,402.84V363.1h38.77v39.74Z"/><path class="cls-1" d="M940.41,402.84V363.1h38.77v39.74Z"/><path class="cls-1" d="M979.18,402.84V363.1H1018v39.74Z"/><path class="cls-1" d="M1018,402.84V363.1h38.77v39.74Z"/><path class="cls-1" d="M1056.71,370.21V323.37h38.77v46.84Z"/><path class="cls-1" d="M1095.48,370.21V323.37h38.76v46.84Z"/><path class="cls-1" d="M82.46,223.59q-6,0-9-3.93t-3.08-11.53q0-7.89,3.08-12t9-4.07A9,9,0,0,1,88,193.67a6.35,6.35,0,0,1,2.5,4.46h2.35l-1.78,8.64c0-3.12-.61-5.5-1.84-7.12a6.41,6.41,0,0,0-5.43-2.43A6.32,6.32,0,0,0,78.25,200q-1.89,2.76-1.89,8.13c0,3.4.63,6,1.89,7.7a7.23,7.23,0,0,0,11,.17c1.24-1.62,1.85-4,1.84-7.13l2.06,8.65H90.52a6,6,0,0,1-2.42,4.46A9.07,9.07,0,0,1,82.46,223.59Zm9.24-.29-.63-6V180.08h6.07V223Z"/><path class="cls-1" d="M104.24,223v-5H124.5v5Zm1.14-25.35v-5h10.13l.58,5ZM111,223V192.68h4.92l1.15,8.7V223Zm6.07-13-1.78-9.5h2.35q.51-8.34,8.36-8.36,4.7,0,6.81,2.69c1.42,1.8,2.12,4.7,2.12,8.7h-6a8.74,8.74,0,0,0-1-4.78,3.55,3.55,0,0,0-3.19-1.45,6.24,6.24,0,0,0-5.77,3.3c-1.27,2.15-1.9,5.34-1.9,9.34Z"/><path class="cls-1" d="M149,223.59c-3.17,0-5.62-.77-7.36-2.29a8.21,8.21,0,0,1-2.6-6.47,8.56,8.56,0,0,1,3.59-7.39q3.6-2.56,10.15-2.57a32.66,32.66,0,0,1,4.85.33,18.25,18.25,0,0,1,3.79,1l-1.26,4.13a21.41,21.41,0,0,0-3.75-.51c-1.22,0-2.47-.07-3.75-.07q-7.89,0-7.9,4.81a3.74,3.74,0,0,0,1.36,3.09,6,6,0,0,0,3.85,1.09,10.22,10.22,0,0,0,4.74-1,6.93,6.93,0,0,0,2.85-2.49,5.77,5.77,0,0,0,.94-3.12v-3.32l1.78,7.78h-2.41l1-.91a7.48,7.48,0,0,1-1.21,4.39,7.29,7.29,0,0,1-3.42,2.63A14,14,0,0,1,149,223.59Zm10.7-.29-.4-9-.8-2.52V204a5,5,0,0,0-2.13-4.45A12.3,12.3,0,0,0,150,198l-7.27-.2.57-5.38,6.13.09q7.53.12,11.17,3.24t3.65,9.15V217.5l5.15.63V223Z"/><path class="cls-1" d="M173.84,223V192.68h5.38l.69,6.41V223Zm11.39,0V199.26q0-2.58-2.4-2.58c-2,0-2.92,1.38-2.92,4.12l-1.77-4.35h1.94c.24-2.9,2-4.35,5.21-4.35a4.66,4.66,0,0,1,3.74,1.63,7.61,7.61,0,0,1,1.35,5v24.32Zm10.48,0V199.83c0-2.1-.78-3.15-2.35-3.15-2,0-3,1.38-3,4.12l-2.06-4.35h2.35a4.86,4.86,0,0,1,1.42-3.06,5,5,0,0,1,3.68-1.29,5.69,5.69,0,0,1,4.57,1.69q1.44,1.71,1.44,5.47V223Z"/><path class="cls-1" d="M217.69,223.59c-3.17,0-5.62-.77-7.36-2.29a8.21,8.21,0,0,1-2.6-6.47,8.56,8.56,0,0,1,3.59-7.39q3.6-2.56,10.15-2.57a32.66,32.66,0,0,1,4.85.33,18.25,18.25,0,0,1,3.79,1l-1.26,4.13a21.41,21.41,0,0,0-3.75-.51c-1.22,0-2.47-.07-3.75-.07q-7.89,0-7.9,4.81a3.74,3.74,0,0,0,1.36,3.09,6,6,0,0,0,3.85,1.09,10.22,10.22,0,0,0,4.74-1,6.93,6.93,0,0,0,2.85-2.49,5.77,5.77,0,0,0,.94-3.12v-3.32l1.78,7.78h-2.41l1-.91a7.48,7.48,0,0,1-1.21,4.39,7.29,7.29,0,0,1-3.42,2.63A14,14,0,0,1,217.69,223.59Zm10.7-.29-.4-9-.8-2.52V204a5,5,0,0,0-2.13-4.45,12.28,12.28,0,0,0-6.34-1.53l-7.27-.2.57-5.38,6.13.09q7.51.12,11.17,3.24t3.65,9.15v12.65l5.15.63V223Z"/><path class="cls-1" d="M241.33,197.66v-5H268.8v5Zm7.61,11V183.52H255V208.7ZM262,223.59q-6.9,0-10-2.87c-2-1.9-3.08-5-3.08-9.15v-5.16H255v4.87q0,3.6,1.76,5.24c1.17,1.08,3.1,1.63,5.8,1.63a27.28,27.28,0,0,0,3-.16c1.07-.1,2.29-.24,3.66-.41L270,223c-1.34.23-2.64.4-3.91.51S263.42,223.59,262,223.59Z"/><path class="cls-1" d="M278.25,223v-5h12.13v5ZM280,197.66v-5H295.9v5Zm12.67-9.79a4.23,4.23,0,1,1,3-1.25,4.08,4.08,0,0,1-3,1.25ZM289.83,223V194.39h6.07V223Zm5.5,0v-5h9.9v5Z"/><path class="cls-1" d="M328.11,223.59q-7.77,0-12-4.08t-4.22-11.72q0-7.44,4-11.57t11.4-4.12a16.25,16.25,0,0,1,7.6,1.65,9.65,9.65,0,0,1,4.51,4.65L334.75,202a9.12,9.12,0,0,0-3.3-3.23,9.48,9.48,0,0,0-11,1.44c-1.59,1.74-2.38,4.19-2.38,7.37,0,3.46.93,6.09,2.79,7.91s4.53,2.74,8,2.74c1.41,0,2.83-.07,4.24-.2s2.78-.32,4.12-.55l.69,5.33a31.81,31.81,0,0,1-4.85.68C331.32,223.53,329.69,223.59,328.11,223.59Z"/><path class="cls-1" d="M396.79,223.59q-7.74,0-12-4.08t-4.22-11.72q0-7.44,4-11.57T396,192.1a16.25,16.25,0,0,1,7.6,1.65,9.65,9.65,0,0,1,4.51,4.65L403.43,202a9.1,9.1,0,0,0-3.29-3.23,9.48,9.48,0,0,0-11,1.44c-1.59,1.74-2.38,4.19-2.38,7.37,0,3.46.93,6.09,2.79,7.91s4.53,2.74,8,2.74c1.41,0,2.83-.07,4.24-.2s2.78-.32,4.12-.55l.69,5.33a31.76,31.76,0,0,1-4.86.68C400,223.53,398.38,223.59,396.79,223.59Z"/><path class="cls-1" d="M428.22,223.59q-6.3,0-9.79-4.13T415,207.84q0-7.5,3.49-11.63t9.79-4.11q6.33,0,9.8,4.11t3.48,11.63q0,7.5-3.48,11.62T428.22,223.59Zm0-5.44a5.88,5.88,0,0,0,5.17-2.69c1.21-1.8,1.81-4.33,1.81-7.62s-.6-5.84-1.81-7.62a6.34,6.34,0,0,0-8.82-1.52,6.45,6.45,0,0,0-1.52,1.52c-1.2,1.78-1.81,4.32-1.81,7.62s.6,5.82,1.81,7.62A5.89,5.89,0,0,0,428.22,218.15Z"/><path class="cls-1" d="M460.25,223.59q-6,0-9-3.93t-3.08-11.53q0-7.89,3.08-12t9-4.07a8.93,8.93,0,0,1,5.53,1.61,6.33,6.33,0,0,1,2.51,4.46h2.35l-1.78,8.64c0-3.12-.61-5.5-1.85-7.12a6.38,6.38,0,0,0-5.42-2.43A6.32,6.32,0,0,0,456,200q-1.89,2.76-1.89,8.13c0,3.4.63,6,1.89,7.7a7.24,7.24,0,0,0,10.2,1,7.37,7.37,0,0,0,.8-.78c1.24-1.62,1.85-4,1.85-7.13l2.06,8.65h-2.66a6,6,0,0,1-2.42,4.46A9,9,0,0,1,460.25,223.59Zm9.24-.29-.63-6V180.08h6.07V223Z"/><path class="cls-1" d="M499.83,223.59q-7.75,0-12-4.08t-4.22-11.72q0-7.44,3.58-11.57t10.1-4.12q6.15,0,9.52,3.72t3.36,10.82c0,1.4-.06,2.69-.17,3.89H488.7V206h16a9.18,9.18,0,0,0-1.94-6.28,6.87,6.87,0,0,0-5.38-2.19,7.29,7.29,0,0,0-6,2.63q-2.13,2.64-2.13,7.44,0,5.26,2.93,8t8.34,2.74a33.18,33.18,0,0,0,3.73-.21c1.22-.14,2.46-.34,3.72-.59l.74,5.32a36.82,36.82,0,0,1-4.92.66C502.29,223.54,501,223.59,499.83,223.59Z"/><path class="cls-1" d="M516.37,223v-5h20.26v5Zm1.15-25.35v-5h10.13l.57,5Zm5.6,25.35V192.68h4.93l1.14,8.7V223Zm6.07-13-1.77-9.5h2.34q.54-8.34,8.36-8.36,4.71,0,6.81,2.69c1.42,1.8,2.12,4.7,2.12,8.7h-6a8.74,8.74,0,0,0-1-4.78,3.55,3.55,0,0,0-3.19-1.45,6.23,6.23,0,0,0-5.76,3.3c-1.27,2.15-1.91,5.34-1.91,9.34Z"/></svg>